<svg xmlns="http://www.w3.org/2000/svg" width="400" height="400"><line x1="98" y1="194" x2="107" y2="10" stroke="#8490bc" stroke-width="2"/><line x1="130" y1="124" x2="103" y2="200" stroke="#9b4bce" stroke-width="2"/><line x1="122" y1="91" x2="149" y2="55" stroke="#474ee2" stroke-width="2"/><line x1="72" y1="35" x2="193" y2="24" stroke="#80425d" stroke-width="2"/><line x1="136" y1="180" x2="154" y2="37" stroke="#9ecba9" stroke-width="2"/><line x1="25" y1="186" x2="18" y2="175" stroke="#a90f9c" stroke-width="2"/><line x1="120" y1="143" x2="25" y2="90" stroke="#de4bc5" stroke-width="2"/><line x1="80" y1="156" x2="163" y2="52" stroke="#f43aa0" stroke-width="2"/><line x1="113" y1="133" x2="66" y2="15" stroke="#073079" stroke-width="2"/><line x1="23" y1="184" x2="102" y2="181" stroke="#0095ca" stroke-width="2"/><line x1="156" y1="126" x2="85" y2="62" stroke="#a6812f" stroke-width="2"/><line x1="180" y1="16" x2="48" y2="145" stroke="#71832c" stroke-width="2"/><line x1="61" y1="36" x2="139" y2="114" stroke="#2eb3db" stroke-width="2"/><line x1="20" y1="81" x2="130" y2="125" stroke="#37d66e" stroke-width="2"/><line x1="77" y1="141" x2="74" y2="180" stroke="#3fe730" stroke-width="2"/><line x1="140" y1="85" x2="138" y2="52" stroke="#9347d0" stroke-width="2"/><line x1="113" y1="23" x2="152" y2="98" stroke="#a253f6" stroke-width="2"/><line x1="147" y1="61" x2="74" y2="47" stroke="#60f7e6" stroke-width="2"/><line x1="47" y1="8" x2="156" y2="168" stroke="#852616" stroke-width="2"/><line x1="121" y1="17" x2="22" y2="173" stroke="#42acc7" stroke-width="2"/><line x1="38" y1="9" x2="20" y2="179" stroke="#c857f4" stroke-width="2"/><line x1="180" y1="134" x2="70" y2="133" stroke="#7893ae" stroke-width="2"/><line x1="55" y1="173" x2="150" y2="107" stroke="#8ce86e" stroke-width="2"/><line x1="115" y1="126" x2="169" y2="164" stroke="#b6f8e1" stroke-width="2"/><line x1="21" y1="83" x2="156" y2="29" stroke="#f90f36" stroke-width="2"/><line x1="150" y1="161" x2="85" y2="48" stroke="#7c6f2a" stroke-width="2"/><line x1="4" y1="187" x2="69" y2="29" stroke="#70e034" stroke-width="2"/><line x1="95" y1="43" x2="85" y2="109" stroke="#1fd7b0" stroke-width="2"/><line x1="25" y1="200" x2="37" y2="178" stroke="#700316" stroke-width="2"/><line x1="11" y1="146" x2="162" y2="136" stroke="#25e2eb" stroke-width="2"/></svg>