<svg xmlns="http://www.w3.org/2000/svg" width="400" height="400"><line x1="6" y1="31" x2="162" y2="48" stroke="#3d48b9" stroke-width="2"/><line x1="100" y1="23" x2="94" y2="29" stroke="#12a1fa" stroke-width="2"/><line x1="155" y1="5" x2="49" y2="47" stroke="#3f6f2f" stroke-width="2"/><line x1="122" y1="53" x2="186" y2="15" stroke="#0baa28" stroke-width="2"/><line x1="139" y1="108" x2="158" y2="25" stroke="#851438" stroke-width="2"/><line x1="17" y1="56" x2="18" y2="165" stroke="#9a24bc" stroke-width="2"/><line x1="89" y1="111" x2="46" y2="15" stroke="#ef2bd3" stroke-width="2"/><line x1="10" y1="152" x2="25" y2="179" stroke="#c8555a" stroke-width="2"/><line x1="51" y1="66" x2="91" y2="187" stroke="#f0c02c" stroke-width="2"/><line x1="145" y1="43" x2="178" y2="172" stroke="#6825f8" stroke-width="2"/><line x1="196" y1="14" x2="173" y2="40" stroke="#52eba4" stroke-width="2"/><line x1="87" y1="135" x2="64" y2="30" stroke="#e276fc" stroke-width="2"/><line x1="170" y1="44" x2="3" y2="120" stroke="#d1df1e" stroke-width="2"/><line x1="145" y1="130" x2="79" y2="166" stroke="#b6dc95" stroke-width="2"/><line x1="99" y1="168" x2="64" y2="39" stroke="#065e0d" stroke-width="2"/><line x1="117" y1="189" x2="20" y2="85" stroke="#176587" stroke-width="2"/><line x1="139" y1="71" x2="34" y2="61" stroke="#f6b20a" stroke-width="2"/><line x1="90" y1="156" x2="73" y2="172" stroke="#b7e938" stroke-width="2"/><line x1="151" y1="162" x2="158" y2="33" stroke="#9edf53" stroke-width="2"/><line x1="99" y1="191" x2="106" y2="166" stroke="#29548a" stroke-width="2"/><line x1="0" y1="152" x2="49" y2="178" stroke="#ab36b2" stroke-width="2"/><line x1="40" y1="61" x2="57" y2="163" stroke="#e571fe" stroke-width="2"/><line x1="96" y1="181" x2="172" y2="145" stroke="#d42d13" stroke-width="2"/><line x1="8" y1="102" x2="179" y2="145" stroke="#d621ca" stroke-width="2"/><line x1="197" y1="169" x2="181" y2="11" stroke="#54d359" stroke-width="2"/><line x1="114" y1="16" x2="66" y2="179" stroke="#50bc4b" stroke-width="2"/><line x1="114" y1="135" x2="124" y2="143" stroke="#000910" stroke-width="2"/><line x1="9" y1="126" x2="83" y2="79" stroke="#ef0c7f" stroke-width="2"/><line x1="12" y1="106" x2="48" y2="140" stroke="#2abc31" stroke-width="2"/><line x1="185" y1="33" x2="3" y2="102" stroke="#d5c09a" stroke-width="2"/></svg>